<svg id="Layer_1" data-name="Layer 1" xmlns="http://www.w3.org/2000/svg" viewBox="0 0 1080 1080"><path d="M389,566.78a32.31,32.31,0,0,0-32.21,32.4v.23a32.13,32.13,0,0,0,32.3,32h.09a32.3,32.3,0,0,0-.18-64.6Zm29.82,27c0,17.38-17.65,32.84-35.86,32.84-13.08,0-23.6-8.6-23.6-22,0-17.39,17.64-32.85,35.86-32.85C408.31,571.82,418.83,580.42,418.83,593.78Z"/><path d="M409.43,502l-.2,2.09a21.07,21.07,0,0,1,10.88,21c-1.61,17.12-20.57,31.05-38.7,29.34-14.12-1.34-22.76-12-21.64-23.83a32.16,32.16,0,0,1,12.82-21.86l.82-8.74a32.19,32.19,0,0,0-15.55,24.54h0l0,.25a32.3,32.3,0,0,0,64.34,5.82A31.79,31.79,0,0,0,409.43,502Z"/><polygon points="442.23 464.08 430.58 494.43 398.54 476 415.74 455.81 410.59 452.84 397.75 475.54 376.65 463.41 394 443.31 388.85 440.34 370.65 472 377.56 470.26 424.2 497.09 426.18 503.93 447.39 467.04 442.23 464.08"/><path d="M450.5,456.14l-1,7.05,8.76-6.32-7.13-1.28-5.27-17.18L465,424.61l15.2,10.14-1,7L492,432.54l-7-1.27-52.93-34.49-2.08,1.5,5.41,7.5Zm13.89-31.89-18.7,13.48-9.45-31.42Z"/><polygon points="499.8 425.8 495.88 431.74 506.22 429.83 500.43 425.69 490.89 374.05 534.26 419.43 530.51 425.33 540.68 423.46 534.89 419.32 525.11 366.42 529.04 360.49 518.69 362.4 524.48 366.53 532.26 408.64 492.24 367.28 485.04 368.61 490.14 373.53 499.8 425.8"/><polygon points="587.93 435.1 591.45 428.79 624.81 391.65 610.08 447.43 613.99 449.61 617.51 443.3 654.02 404.47 660.99 402.48 651.79 397.36 653.47 404.15 617.74 442.16 631.97 386.32 628.45 384.36 625.19 390.4 591.67 427.65 604.3 376.77 611.11 374.7 597.04 366.87 598.87 373.74 584.34 433.1 587.93 435.1"/><path d="M620.66,453.4l6.37,8.72,1.24-7.15,17.14-5.39,13.94,19.05-10,15.27-7.05-1,9.34,12.78,1.23-7,34.09-53.18-1.51-2.07L678,438.91l-50.24,15.46Zm56.78-13.65L659.71,468l-13.62-18.6Z"/><polygon points="714.72 492.35 658.63 508.15 652.35 504.78 656.52 519.58 660.11 513.43 716.2 497.64 718.36 505.29 709.99 520.77 721.36 513.57 710.82 476.15 697.36 475.96 712.56 484.7 714.72 492.35"/><polygon points="663.97 539.88 658.84 534.95 658.92 577.49 664.87 577.48 659.77 545.38 696.74 545.3 691.94 571.38 697.89 571.37 697.65 545.3 721.99 545.25 717.01 571.33 722.96 571.32 722.88 534.82 717.77 539.77 663.97 539.88"/><path d="M664,591.53l-5.12-4.95V602L664,597h15.37c7,.37,10.7,6.23,13.81,11.9l-30.28,14-4-3.75v13.9l4.66-4.21,32.11-15.28c3.93,7.14,6.86,12.26,13.82,12.26,7.68,0,13.44-6.31,13.44-14.73V586.58l-5.12,4.95ZM722.29,606c-.28,12.35-7.87,14.27-13.09,14.27s-11.25-4.11-14.82-10.52c-3.11-5.58-5.94-10.79-11.89-12.72h39.8Z"/><path d="M607.13,626.7l-11-27.41a4.72,4.72,0,0,0-4.19-3l-14.22-.63c-.12-1.67-.47-9.28,2.62-12.09l9.22-2.87v0a3.87,3.87,0,0,0,2.77-4.21,4,4,0,0,0-.46-1.35l-8-14.12.54-.75.53-.75a55.25,55.25,0,0,0,3.18-5.23l.38-.7c.68-1.32,1.3-2.67,1.87-4,.1-.25.2-.5.29-.75.49-1.21.93-2.43,1.32-3.67l.27-.88a54.52,54.52,0,1,0-105-2c.06.27.14.53.21.8a55.39,55.39,0,0,0,2.08,6.18c.11.27.24.53.35.8a54.48,54.48,0,0,0,3.87,7.41c.18.3.37.59.56.89.59.91,1.2,1.8,1.85,2.69l-8,14.16a3.61,3.61,0,0,0-.43,1.36h0a3.83,3.83,0,0,0,2.75,4.19v0l9.2,2.86c3.08,2.79,2.75,10.35,2.63,12.07l-14.19.63a4.7,4.7,0,0,0-4.2,3l-11,27.4-1.2,2.77a1,1,0,0,0,0,.95,1,1,0,0,0,.88.49.75.75,0,0,0,.3,0,6.3,6.3,0,0,0,3.88-3.15l.08-.15a4,4,0,0,0,2.83-3.46l0-.34a3.15,3.15,0,0,1,.64-1.67l3.53-4.56a10.87,10.87,0,0,1,1.56-1.62l2-1.69a11.22,11.22,0,0,0,3.88-6.77l.06-.47.06-.24a1.88,1.88,0,0,1,2.36-1.23L505,609l.33,16.88a5.35,5.35,0,0,0,5.1,5.19l29,1.13h.08a.92.92,0,0,0,.46-.14.91.91,0,0,0,.46.13l.06,0,29.08-1.14a5.31,5.31,0,0,0,5.08-5.19L575,609l11.21-3.53.27-.07a1.87,1.87,0,0,1,2.13,1.55l.09.46a11,11,0,0,0,3.87,6.77l2,1.68a10.09,10.09,0,0,1,1.58,1.62l3.51,4.56a3,3,0,0,1,.65,1.69l0,.31a3.92,3.92,0,0,0,2.82,3.47l.09.15a6.3,6.3,0,0,0,3.86,3.14.8.8,0,0,0,.31,0,1,1,0,0,0,.84-.45,1,1,0,0,0,.07-.94Zm-30.25-31-9.12-.4h-.16a5.35,5.35,0,0,0-1,0c-.23,0-.46,0-.68.09v0a3.45,3.45,0,0,0-.71.15,3.13,3.13,0,0,0-.66.2,2.52,2.52,0,0,0-.66.26,3.06,3.06,0,0,0-.65.33,4,4,0,0,0-.34.22,17.1,17.1,0,0,0,1.8-6.81,11,11,0,0,0-1.17-4.47c-.77-1.8-1.48-3.51-.74-5.86a6.92,6.92,0,0,1,.33-.84,5.32,5.32,0,0,1,.21-.5l.12-.24.35-.67c1.1-2.14,1.85-3.78,1.47-5a5.58,5.58,0,0,0,1.15.15,5.5,5.5,0,0,0,4.32-2.19,7.24,7.24,0,0,0,.51,2.59,7.65,7.65,0,0,0,.52,1.08,4.84,4.84,0,0,0,2,1.6l-2.26.36a5.11,5.11,0,0,0,.67,10.18,4.59,4.59,0,0,0,1.56-.25l5.1-1.58C576.5,587.54,576.76,593.9,576.88,595.66Zm-15.81,3.09-.26-.12h0l-.11,0,.27.31,0-.06.05.08-.37-.22a12.14,12.14,0,0,0-.61,1.12h0a3.48,3.48,0,0,0-.26.63,0,0,0,0,1,0,0v0q-.11.28-.18.57v0h0a.71.71,0,0,0,0,.19,3.82,3.82,0,0,0-.11.57h0c0,.24-.07.48-.09.73a7.13,7.13,0,0,0,0,.81,7.66,7.66,0,0,0,.83,3.28l5.26,12.85a1.57,1.57,0,0,1,.11.83,1.66,1.66,0,0,1-1.85,1.44,5.86,5.86,0,0,0-4.85,1.44l-1.14,1a5.67,5.67,0,0,1-2,1.16l-4.63,1.53-3-.72a3,3,0,0,0-2.88.95l-.71.86-1.6.35a4.39,4.39,0,0,0-2.7,1.84,4.46,4.46,0,0,0-2.73-1.84l-1.6-.36-.71-.86a3,3,0,0,0-2.89-.95l-3,.73-4.63-1.53a5.81,5.81,0,0,1-2-1.18l-1.14-1a5.89,5.89,0,0,0-3.94-1.51,4.4,4.4,0,0,0-.89.07,1.64,1.64,0,0,1-1.53-.63,1.62,1.62,0,0,1-.23-1.64L520,606.69a8.12,8.12,0,0,0,.81-3.32c0-.26,0-.52,0-.75a.57.57,0,0,0,0-.26,3.51,3.51,0,0,0-.12-.79s0-.05,0-.07c0-.19-.09-.38-.14-.57l0-.14c-.07-.24-.17-.48-.27-.75l-.28-.57h0c-.15-.28-.31-.54-.48-.8l-.46.29.44-.33-.12-.17a2.7,2.7,0,0,1-.25-.34,16.27,16.27,0,0,1-2.89-8.45,10,10,0,0,1,1.1-4.15c.87-2,1.76-4.14.51-7.15a54.25,54.25,0,0,0,14.79,4.26c.88.12,1.76.22,2.65.3,1.62.14,3.25.23,4.89.23a53.92,53.92,0,0,0,19.75-3.7c.71-.28,1.41-.57,2.1-.88l.39-.17-.06.16a7.37,7.37,0,0,0-.28.83c-.69,2.48.1,4.33.87,6.13a10.12,10.12,0,0,1,1.1,4.14,16.37,16.37,0,0,1-3.14,8.8Zm-57.69-23.87-6.61-1.08,3-8.43a55.57,55.57,0,0,0,8.11,7.29c-.09.2-.19.41-.3.61A4.34,4.34,0,0,1,503.38,574.88Zm-6.78-14.67c-.42-.57-.82-1.14-1.21-1.73.66.11,1.33.22,2,.35Zm1.21-2.14h0c-1-.2-2-.38-3-.53a52.27,52.27,0,0,1-4-7.56c5.66,0,25.07.9,34.79,15.08,8.12,11.86,23.34,14.1,31.94,14.36a53.8,53.8,0,0,1-24.8,2.39,28.62,28.62,0,0,1-11.15-9.43,30.75,30.75,0,0,0-2.67-3.36l-.27-.28a5.49,5.49,0,0,0,.26-.78,5.39,5.39,0,0,0-4.14-6.41l-.17,0-.19,0-2.91-.49a.82.82,0,0,0-.27,0,.74.74,0,0,0-.59.87l0,.11-.9.2a43.5,43.5,0,0,0-8-3.12,2.25,2.25,0,0,0-2.27-1.82A2.16,2.16,0,0,0,497.81,558.07ZM497,496.5a53.44,53.44,0,0,1,19.74-16.26l9.77,43.8a36.16,36.16,0,0,0-12.62,8.58l-18.15-34.36C496.14,497.67,496.56,497.08,497,496.5Zm42.62-21.57-.09,46.43a36.42,36.42,0,0,0-12.25,2.37l-9.79-43.86A54.22,54.22,0,0,1,539.62,474.93Zm23.11,5L553,523.69a36.16,36.16,0,0,0-12.6-2.33l.09-46.43A53.33,53.33,0,0,1,562.73,480Zm9.44,5.65a53.62,53.62,0,0,1,12.26,12.8l-18.07,34.15a36.29,36.29,0,0,0-11.4-8l-1.25-.52,9.77-43.67A53.9,53.9,0,0,1,572.17,485.6Zm11.27,74.65h0Zm-.48-.85-.34-.6-.45-.79a2.15,2.15,0,0,0-1.59-.8h-.11a2.2,2.2,0,0,0-2.21,2.09,1.89,1.89,0,0,0,.11.67,29.69,29.69,0,0,0-6.62,2.54l-.2-.07-2.14-.48,0-.11a.77.77,0,0,0-.2-.66.75.75,0,0,0-.68-.21l-3,.52-.11,0-.18,0a5.36,5.36,0,0,0-3.83,7.29l-2.77,1.82a49.88,49.88,0,0,1-12.3-2.52l1.07-.45a84.67,84.67,0,0,0,11.41-6.78c7.48-5,15.2-10.1,23.22-8.67A23.28,23.28,0,0,1,587.4,554a53.69,53.69,0,0,1-3.39,5.46C583.66,559.42,583.31,559.4,583,559.4Zm-6.27,15.48h0a4.33,4.33,0,0,1-4.23-1.59,6.54,6.54,0,0,1-.3-.59,54.87,54.87,0,0,0,8.11-7.27l3,8.39Zm-13.81-4c-.9,0-1.86,0-2.88-.11.61-.39,1.21-.79,1.81-1.19A5.54,5.54,0,0,0,562.88,570.88Zm1.41,0-.14-.08-.1-.06a4.6,4.6,0,0,1,1.44-8.42h0l.24-.05,2.84-.49-.14.79,2.91.66a1.52,1.52,0,0,1,.28.09,1.29,1.29,0,0,1,.62,1.71l-1.59,3.52a4.17,4.17,0,0,1-.33.67,4.7,4.7,0,0,1-3.93,2.22,4.54,4.54,0,0,1-1.27-.19A3.71,3.71,0,0,1,564.29,570.9Zm7.57,1a6.5,6.5,0,0,1,.43-4.87h0l.74-1.63a3.39,3.39,0,0,0,.15-.45,2.11,2.11,0,0,0-.58-1.93,29.28,29.28,0,0,1,6-2.25l1.35,3.8A54.71,54.71,0,0,1,571.86,571.89Zm10.35-20.45c-8.34-1.49-16.21,3.75-23.82,8.8a83.43,83.43,0,0,1-11.3,6.71c-.63.29-1.24.55-1.85.79a32.71,32.71,0,0,1-9.52-5.55,39.72,39.72,0,0,0,8.08-2.69,84.78,84.78,0,0,0,11.42-6.78c7.47-5,15.2-10.1,23.22-8.67a31.36,31.36,0,0,1,11.26,5.07q-.87,2.1-1.94,4.14A23.82,23.82,0,0,0,582.21,551.44Zm-3.63-8.19c-8.36-1.49-16.21,3.74-23.82,8.8a85.12,85.12,0,0,1-11.3,6.71,38.32,38.32,0,0,1-8.49,2.76,27.08,27.08,0,0,1-4.06-4.67,28.64,28.64,0,0,0-1.81-2.35,37.76,37.76,0,0,0,11.06-3.2,85.2,85.2,0,0,0,11.42-6.78c7.48-5,15.22-10.1,23.22-8.67,5.23.94,11.26,4.59,16.52,8.77-.4,1.26-.84,2.51-1.33,3.75A31.86,31.86,0,0,0,578.58,543.25Zm-60.24-13.57a35.46,35.46,0,0,1,49.37,5.63,29.13,29.13,0,0,0-5.71,2,29.78,29.78,0,0,0-48.49,6.94,49.94,49.94,0,0,0-5.52-1.54A35.58,35.58,0,0,1,518.34,529.68Zm2.31,6.49a29,29,0,0,1,40.56,1.55c-1.71.85-3.41,1.84-5.09,2.88a23.3,23.3,0,0,0-36.66,6.25,42,42,0,0,0-5.18-2.29A29,29,0,0,1,520.65,536.17ZM524,542a22.5,22.5,0,0,1,31.44-.92c-1.43.91-2.85,1.85-4.26,2.79l-.64.43a16.82,16.82,0,0,0-25.58,6.15,33.46,33.46,0,0,0-4.73-3.18A22.33,22.33,0,0,1,524,542Zm3.68,5.57a16.05,16.05,0,0,1,22.14-2.78c-1.75,1.18-3.53,2.29-5.36,3.34l-.3-.13a10.41,10.41,0,0,0-13.49,5.47c-.72.13-1.43.24-2.15.32a33.63,33.63,0,0,0-2.92-2.82A16.07,16.07,0,0,1,527.63,547.54Zm15.87,1.07c-1.21.68-2.43,1.33-3.68,1.95a37,37,0,0,1-8.22,2.7A9.62,9.62,0,0,1,543.5,548.61Zm41.85-9.22c5.08-4.89,7.35-7.09,8.34-8.11a54.5,54.5,0,0,1-2.1,12.47A62.42,62.42,0,0,0,585.35,539.39Zm8.37-9.31h0c-.29.38-5.48,5.41-9.08,8.87a30.51,30.51,0,0,0-9.69-3.9,17.31,17.31,0,0,0-6.34.07c-.53-.67-1.08-1.31-1.65-1.94l18-34A53.86,53.86,0,0,1,593.72,530.08Zm-80.42,3.18a36,36,0,0,0-6.13,9.32,59.2,59.2,0,0,0-9-1.11c-4.58-4.42-11.34-11-11.67-11.39l-.16.1A53.69,53.69,0,0,1,495.22,499Zm-26.94-2.94.22,0-.22,0ZM497,541.43c-1.93,0-3.11,0-3.16,0-1.93.15-3.84.37-5.75.66a53.58,53.58,0,0,1-1.66-11C487.4,532.17,490.05,534.77,497,541.43Zm-3.11.86c.25,0,25-1.61,36.38,15,8.59,12.51,24.72,14.39,33.53,14.39l.26,0c1.09.89.41,2.41-1.21,5.55-1,.49-2.12.93-3.19,1.35-7.81,0-24.76-1.42-33.4-14-10.13-14.8-30.5-15.5-35.81-15.43a52.56,52.56,0,0,1-2.15-6.26C490.12,542.65,492,542.43,493.85,542.29Zm7.55,18.44.1-.32c0-.11.06-.22.1-.33a1.72,1.72,0,0,0,.07-.21,42.16,42.16,0,0,1,6.76,2.57,2.11,2.11,0,0,0-1.46,2.93l.74,1.64h0a6.55,6.55,0,0,1,.47,4.83,53.31,53.31,0,0,1-8.1-7.35Zm6.31,4.3a1.3,1.3,0,0,1,.9-1.8l2.94-.65-.14-.78,2.78.48.24.05.07,0a4.6,4.6,0,0,1,1.43,8.42l-.1.06-.1,0a2.76,2.76,0,0,1-.92.38,4.34,4.34,0,0,1-1.24.19,4.66,4.66,0,0,1-3.94-2.22,3.61,3.61,0,0,1-.35-.71Zm8.46,6.55h0a.72.72,0,0,0,.21-.12,5.32,5.32,0,0,0,1.85-1.92l0,.06a29.26,29.26,0,0,1,2.6,3.26,28.69,28.69,0,0,0,9.38,8.58,54.13,54.13,0,0,1-13.09-4.19C515.47,574,514.79,572.45,516.17,571.58Zm57.35,13.29a3.84,3.84,0,0,1-1.3.2,4.28,4.28,0,0,1-4.29-4.28,4.34,4.34,0,0,1,3.74-4.27l11.84-1.93,1.31,3.72a3.88,3.88,0,0,0,2.32,2.33Zm17.62-9.3a3.24,3.24,0,0,1,.36,1.06,3,3,0,0,1-.61,2.25,3.06,3.06,0,0,1-5.3-.85l-1.42-4-.11-.27-3.37-9.52-1.32-3.74-.07-.22c0-.14-.07-.28-.12-.41a1.45,1.45,0,0,1-.11-.5,1.41,1.41,0,0,1,1.41-1.32h.06a1.35,1.35,0,0,1,1,.46l1.59,2.81Zm-102.62,1a2.75,2.75,0,0,1,.33-1L497,561l1-1.83.4-.69a1.39,1.39,0,0,1,1-.5h.06a1.42,1.42,0,0,1,1.4,1.3,1.36,1.36,0,0,1-.12.49c0,.13-.08.26-.11.39l-1.32,3.73-5,14.1a3,3,0,0,1-3.25,2h0l-.18,0A3,3,0,0,1,488.52,576.62Zm6.66,1.68,1.32-3.72,11.84,1.93a4.3,4.3,0,0,1-.56,8.56,3.75,3.75,0,0,1-1.29-.21l-13.6-4.22A3.82,3.82,0,0,0,495.18,578.3Zm5.92,5.75,5.12,1.59a4.58,4.58,0,0,0,1.55.25h0a5.11,5.11,0,0,0,.68-10.18l-2.24-.36a4.81,4.81,0,0,0,2-1.6,7.73,7.73,0,0,0,.58-1.24,7.33,7.33,0,0,0,.44-2.4,5.12,5.12,0,0,0,5.46,2c-.37,1.17.31,2.73,1.34,4.75l.47.92.12.23c1.56,3.07.71,5.08-.2,7.19a11.07,11.07,0,0,0-1.17,4.48,16.92,16.92,0,0,0,1.77,6.77l-.21-.15h0a5.46,5.46,0,0,0-.64-.32h0a1.77,1.77,0,0,0-.67-.26,2.63,2.63,0,0,0-.67-.22,2.9,2.9,0,0,0-.71-.15,2.09,2.09,0,0,0-.35,0l-.24,0-.17,0a6.76,6.76,0,0,0-.9,0,1.11,1.11,0,0,0-.26,0l-9.08.4C503.24,593.84,503.48,587.51,501.1,584.05Zm-7.05,20.66a2.37,2.37,0,0,0-.36-.09,2.7,2.7,0,0,0-3.1,2.22l-.07.46a10.39,10.39,0,0,1-3.59,6.28l-2,1.68a11.66,11.66,0,0,0-1.69,1.75l-3.53,4.56a4,4,0,0,0-.81,2.11l0,.33a3.17,3.17,0,0,1-2.41,2.79l-.18,0-.24.48a5.44,5.44,0,0,1-3.44,2.74.2.2,0,0,1-.18-.1.14.14,0,0,1,0-.17l1.21-2.81,11.05-27.42a3.9,3.9,0,0,1,3.47-2.45l21-.94a7.9,7.9,0,0,0-4.21,7l.09,5ZM539.5,631.4l-29.05-1.14a4.54,4.54,0,0,1-4.33-4.39l-.43-22.71a7.12,7.12,0,0,1,6.76-7.11,4.82,4.82,0,0,1,.76,0l.2,0a2,2,0,0,1,.55.07,5.36,5.36,0,0,1,1.25.33,4.24,4.24,0,0,1,.59.23,6.45,6.45,0,0,1,.59.29,6.55,6.55,0,0,1,.81.57,8.11,8.11,0,0,1,1.13,1.06h0c.08.12.16.24.25.35l.1.14h0c.15.23.3.48.43.73h0l.26.54c.08.21.17.43.24.64l0,.13a3.82,3.82,0,0,1,.14.56,6,6,0,0,1,.11.72h0s0,.06,0,.1a.33.33,0,0,1,0,.14c0,.24,0,.47,0,.7a7.25,7.25,0,0,1-.74,3l-5.29,12.86a2.49,2.49,0,0,0,2.64,3.38,3.91,3.91,0,0,1,.76-.07,5.17,5.17,0,0,1,3.4,1.31l1.14,1a6.84,6.84,0,0,0,2.31,1.33l4.85,1.61,3.25-.78a2.12,2.12,0,0,1,2.08.69l.89,1.06,1.87.42a3.66,3.66,0,0,1,2.45,1.9.69.69,0,0,0,0,.2.3.3,0,0,0,0,.1Zm34.36-5.51a4.48,4.48,0,0,1-4.3,4.38l-29.09,1.14h0a.61.61,0,0,0,0-.13,1.24,1.24,0,0,0,0-.16,3.66,3.66,0,0,1,2.46-1.94l1.86-.42.88-1a2.17,2.17,0,0,1,2.09-.7l3.25.78,4.86-1.61a6.35,6.35,0,0,0,2.29-1.33l1.14-1a5,5,0,0,1,4.19-1.25,2.47,2.47,0,0,0,2.62-3.38l-5.28-12.89a6.72,6.72,0,0,1-.75-3c0-.24,0-.48,0-.72s0-.46.09-.69.07-.38.11-.57l0-.11c.05-.18.11-.36.17-.54a5.72,5.72,0,0,1,.24-.57,8.55,8.55,0,0,1,.59-1.07h0a1.49,1.49,0,0,0,.12-.14h0a9.76,9.76,0,0,1,1.21-1.28,7,7,0,0,1,1-.69,4.18,4.18,0,0,1,.56-.28,4,4,0,0,1,.6-.25,4.61,4.61,0,0,1,.63-.2,3.24,3.24,0,0,1,.62-.12,4.52,4.52,0,0,1,.63-.08,4.12,4.12,0,0,1,.86,0,7.1,7.1,0,0,1,6.74,7.1ZM607.6,630a.24.24,0,0,1-.23.09,5.47,5.47,0,0,1-3.38-2.75l-.27-.47-.17,0a3.12,3.12,0,0,1-2.38-2.81l0-.31a3.77,3.77,0,0,0-.81-2.11L596.8,617a10.83,10.83,0,0,0-1.7-1.75l-2-1.69a10.14,10.14,0,0,1-3.59-6.27l-.09-.47a2.62,2.62,0,0,0-.09-.38,2.67,2.67,0,0,0-3.35-1.74l-11,3.45.09-5a7.91,7.91,0,0,0-4.15-7l20.92.93a3.93,3.93,0,0,1,3.47,2.45l11,27.43,1.24,2.81A.18.18,0,0,1,607.6,630Z"/><path d="M540,348.38c-107.53,0-194.69,87.17-194.69,194.69V731.62H734.69V543.07C734.69,435.55,647.53,348.38,540,348.38ZM346.32,543.07c0-107,86.71-193.65,193.66-193.66s193.69,86.69,193.7,193.66V648.68H649V543a109,109,0,0,0-218,.07V648.68h-84.7ZM648,648.68H432V543.07a108,108,0,0,1,215.94,0Zm85.71,81.93H346.32V649.69H733.68Z"/><path d="M434.26,715.15a17.15,17.15,0,0,1-9.48-2.79l-7.64-8.67,1.68,12h15.43c7.64,0,13.45-4.78,13.45-12,0-10-6.54-13.67-15.64-17.93-4.7-2.2-12.86-7.2-12.86-13.22,0-4.64,4.63-7.79,10.21-7.79a17.13,17.13,0,0,1,9.26,2.86l7,8.23-1.32-11.61H429.27c-6,0-11.18,3.75-11.18,10,0,9.48,8.38,14.84,13.67,17.48,5.95,3,14.62,7.79,14.62,14C446.38,711.41,440.8,715.15,434.26,715.15Z"/><path d="M449.51,715.67h12.35l-4-4.19v-9.92c0-4.11,2.86-8.38,5.44-11.09l10.65,22L471,715.67h11L478.68,712l-12-24.68c4.63-3.75,7.71-5.22,14.4-8.38h-9.92l2.06,3.31c-10.88,6.09-14.55,13.07-15.36,15.87V665l-8.38,2.57,4,2.64v41.3Z"/><path d="M488.67,673.78a3.31,3.31,0,1,0-3.3-3.3v0A3.28,3.28,0,0,0,488.67,673.78Z"/><polygon points="487.06 711.55 483.09 715.67 495.43 715.67 491.47 711.55 491.47 678.93 483.09 681.57 487.06 684.22 487.06 711.55"/><path d="M497.53,715.67h12.36l-4-4.12V685.17c3-3.16,6-5.43,9.62-5.43,5.15,0,9.85,4.55,9.85,11.39v20.42l-4,4.12h12.35l-4-4.12V691.4c0-8.44-5.95-12.71-12.13-12.71-4.77,0-7.93,2.07-11.75,5.67V679l-8.38,2.65,4,2.64v27.26Z"/><path d="M544.41,714a18.64,18.64,0,0,0,25.06-8.2h-3c-1.25,5.15-4.92,9.11-10.51,9.11-9,0-17.27-10.42-17.27-21.6,0-7.49,4.34-13.74,11.18-13.74,4.41,0,9.11,2.79,12.49,7.35h6.1a18.7,18.7,0,1,0-24,27.08Z"/><path d="M584.6,715.81a12.47,12.47,0,0,0,12.49-9v8.82h8.38l-4-4.12V688.71c-.08-6.17-3.9-9.92-10.07-9.92a15.55,15.55,0,0,0-14,8.67h3.3A15.5,15.5,0,0,1,592.1,693a13.12,13.12,0,0,0-7.5-2c-7.35,0-13,4.78-13,12.2A12.79,12.79,0,0,0,584.6,715.81Zm-2-28.73c1.24-4.7,4.18-7.34,8.52-7.34h0c4.41,0,6,3.23,6,8.45v12.42C595.47,694.59,589.23,688,582.62,687.08Zm3.08,4.49c7.64,0,11.32,7,11.32,12.42v.38a9.24,9.24,0,0,1-9.26,9.24A12.2,12.2,0,0,1,576,701.56C576,695.9,579.75,691.57,585.7,691.57Z"/><path d="M607.61,715.67H620l-4-4.12V690c0-4.41,5.43-6.32,12-6.1l1.1-5c-7.64.95-12.12,2.93-13.08,9.25H616v-9.18l-8.38,2.64,4,2.65v27.33Z"/><path d="M647.87,716h.1a14.83,14.83,0,0,0,15.18-14.48c0-8.38-7.12-13.52-16.68-14.33h16.61a19.06,19.06,0,0,0-16.39-8.67h-.41a18.72,18.72,0,0,0-18.18,19.24C628.1,709.35,638.32,716,647.87,716ZM647.06,680a10,10,0,0,1,10,6.76H635A14.24,14.24,0,0,1,647.06,680Zm-12.49,7.27h9c11.83,0,18.81,6.32,18.81,14.11,0,6.46-5.07,12.42-13.67,12.42-8.82,0-16.17-8.67-16.17-18.37A16.29,16.29,0,0,1,634.57,687.23Z"/></svg>