<svg id="Layer_1" data-name="Layer 1" xmlns="http://www.w3.org/2000/svg" viewBox="0 0 1080 1080"><g id="Group_109" data-name="Group 109"><path id="Path_292" data-name="Path 292" d="M556.28,531.62c1.24-.67,2.06-1.1,2.86-1.55q25.64-14.67,51.25-29.36c3.33-1.91,3-.94,3.32-5.39.38-5,.81-10.05,1.23-15.07a9.21,9.21,0,0,1,.3-1.65,2,2,0,0,1,2-1.6,1.17,1.17,0,0,1,1.32.8,18.79,18.79,0,0,1,.62,3.57c.23,3.82.35,7.64.53,11.47,0,.63.11,1.27.17,1.91,1.14.13,1.84-.58,2.62-1q12.44-7,24.85-14.07c1.21-.69,2.48-1.29,3.66-2.05a18.52,18.52,0,0,1,5.78-2,3.52,3.52,0,0,1,4.12,2.12c1.55,3.13,1,5.18-1.83,7.2a17.71,17.71,0,0,1-1.68,1l-34.49,19.19c-1,.53-1.93,1.1-2.89,1.65,0,.6-.13,1.06-.12,1.51q.27,14,.56,28c0,.37.06.75.06,1.12a3.79,3.79,0,0,1-3.44,4.12H617a5.1,5.1,0,0,1-5.11-2.15,4.62,4.62,0,0,1-.88-3.41c.3-3.53.61-7.06.87-10.6q.42-5.87.77-11.74c0-.73,0-1.47,0-2.15-1-.46-1.55.19-2.17.53-6.62,3.63-13.24,7.3-19.86,10.95l-31.65,17.39c-.9.49-1.78,1-2.82,1.58-.3,3.52-.22,7.06-.41,10.58s-.39,6.81-.31,10.59c1-.52,1.65-.81,2.26-1.17q13.85-8.24,27.66-16.49c1-.57,1.92-1.15,2.93-1.64a12.53,12.53,0,0,1,2.6-1c1.79-.43,2.64.16,3.06,1.92a1.75,1.75,0,0,1-.4,1.82,28.19,28.19,0,0,1-2.77,2.35c-6.73,4.69-13.47,9.4-20.26,14-5,3.42-10.09,6.73-15.15,10.08-.78.51-1.65.89-2.4,1.43a4.84,4.84,0,0,1-2.64.79,5.61,5.61,0,0,1-6.3-4.82,6,6,0,0,1,0-1.27c.22-5.23.52-10.45.75-15.67.07-1.57,0-3.15,0-4.79-.76-.34-1.33.25-1.94.58q-9.22,5-18.42,10.06-7.76,4.23-15.5,8.43c-.89.49-1.77,1-2.75,1.56,0,4.83,0,9.59.39,14.33.07.74.18,1.49.18,2.23a3.23,3.23,0,0,1-2.87,3.23,4.45,4.45,0,0,1-4.88-1.91,3.88,3.88,0,0,1-.67-2.9c.35-3.06.66-6.12,1-9.18,0-.53,0-1.07,0-1.67a2.82,2.82,0,0,0-1,.08q-26,14-52,28.12c-.07.76-.16,1.49-.2,2.23q-.82,17.49-1.63,35c-.11,2.42-.28,4.85-.61,7.25a13.59,13.59,0,0,1-1.18,4,4.14,4.14,0,0,1-5.52,1.94,4.05,4.05,0,0,1-1.46-1.17,8,8,0,0,1-1.7-5.47c0-2.9.06-5.79.2-8.68.19-3.92.49-7.83.72-11.74q.48-8,.94-15.93a10.41,10.41,0,0,0-.12-1.38,4.72,4.72,0,0,0-2.67,1q-11.53,6-23.06,12.07a9.55,9.55,0,0,1-2,.95,3.67,3.67,0,0,1-1.89-.1,1.19,1.19,0,0,1-.71-1.52,1.16,1.16,0,0,1,.37-.52,20.56,20.56,0,0,1,2.11-1.37l26-15.46c.56-.33,1.12-.69,1.69-1a1.89,1.89,0,0,0,1-1.57c.06-.55.1-1.11.15-1.67l2.73-32.37c.64-7.62,1.23-15.25,1.9-22.88.44-5.11,1-10.22,1.45-15.33.08-.92.11-1.84.16-2.81a4.72,4.72,0,0,0-2.75.81C429,531,418,536.1,406.84,541.17q-15.52,7.11-31.1,14.1a23.14,23.14,0,0,1-3.12,1.21,2.52,2.52,0,0,1-2.95-1.08,1.43,1.43,0,0,1,.21-2h0a18.83,18.83,0,0,1,2.6-1.62c7.93-4.16,15.85-8.34,23.82-12.43q45.7-23.42,91.45-46.76c12.06-6.14,24.21-12.08,36.31-18.12a37.55,37.55,0,0,1,8.13-3,3.68,3.68,0,0,1,4.63,2.08l.12.25c1.38,3.1.92,5-1.86,7a28.52,28.52,0,0,1-4.14,2.33q-27.3,13-54.63,25.9c-8.69,4.1-17.42,8.12-26.13,12.18-.84.39-1.65.81-2.55,1.25-.2,24.14-.95,48.15-1.22,72.27a3,3,0,0,0,1-.11q26.25-15.23,52.52-30.49c.21-2.85.41-5.54.61-8.23q.63-8.37,1.25-16.75a12.56,12.56,0,0,1,.33-1.93,1.64,1.64,0,0,1,1.35-1.25,1.42,1.42,0,0,1,1.93,1.08,15,15,0,0,1,.24,2.5c.14,5.89.25,11.76.38,17.64,0,.91.07,1.82.1,2.67,1.16.39,1.76-.35,2.46-.75q10.8-6.2,21.58-12.44c4.61-2.65,9.22-5.32,13.86-7.91a3.41,3.41,0,0,0,2-3.06c.8-9.11,1.74-18.21,2.6-27.31.66-6.88,1.25-13.76,1.91-20.63.68-7.16,1.4-14.31,2.1-21.46,0-.46.1-.93.19-1.39a2,2,0,0,1,1.45-1.55,1.25,1.25,0,0,1,1.62.7,7,7,0,0,1,.32,1.63c.09,1.4.18,2.8.17,4.2-.07,10.46-.19,20.91-.24,31.36,0,9.25,0,18.49,0,27.73,0,.72.09,1.45.17,2.64"/><path id="Path_293" data-name="Path 293" d="M614.69,447.25a4.56,4.56,0,0,1,4,1.8,6.92,6.92,0,0,1,1.25,3.36,3.33,3.33,0,0,1-2.39,3.62,7.21,7.21,0,0,1-8.31-3.46,2.39,2.39,0,0,1,0-2.15,3.65,3.65,0,0,1,1.87-2c1.28-.52,2.63-.87,3.57-1.17"/><path id="Path_294" data-name="Path 294" d="M503,517.57a4.95,4.95,0,1,1,.16-9.89h.22c2.36,0,4.46,2.55,4.43,5.46a4.82,4.82,0,0,1-4.81,4.42"/><path id="Path_295" data-name="Path 295" d="M384.11,403.25A191.06,191.06,0,0,0,323.3,512.52,206.71,206.71,0,0,0,338.79,635c18.29,39.64,50.36,72.73,90.15,91,43.32,19.86,93.61,22.83,139.36,10,43.12-12.1,81.2-38.55,106.16-75.88,20.14-30.13,30.62-66,31.34-102.19a211.82,211.82,0,0,0-24.48-102.71c-16.41-31-41.08-57.86-71.71-75.2-30.37-17.2-64.34-23.32-98.93-21.46-33.6,1.81-68.28,9.9-98.18,25.47a145.12,145.12,0,0,0-28.38,19.21c-3.57,3.1,1.64,8.27,5.19,5.18,29.78-25.93,71.13-37.38,109.7-41.55,28.48-3.09,57.19-1.18,84.22,8.88,31.65,11.78,58.87,33.9,78.33,61.35a202.43,202.43,0,0,1,35.73,94.49c3.74,34.16-1.1,69.41-15.61,100.69a177,177,0,0,1-82.79,84.31A199.78,199.78,0,0,1,464,730.6a177.59,177.59,0,0,1-104.31-73.29A195.81,195.81,0,0,1,327.45,542.9c1.24-40.41,15-80.61,40.5-112.19a183.5,183.5,0,0,1,21.36-22.27c3.54-3.13-1.66-8.31-5.19-5.19"/></g></svg>