<svg xmlns="http://www.w3.org/2000/svg" viewBox="0 0 32.47 32.47"><defs><style>.cls-1{fill:#fff;}</style></defs><g id="Layer_2" data-name="Layer 2"><g id="Layer_1-2" data-name="Layer 1"><path class="cls-1" d="M16.23,8A8.16,8.16,0,0,0,8,16v.27A8.28,8.28,0,1,0,16.23,8Zm5.4,8.28a5.29,5.29,0,0,1-5.19,5.4h-.21a5.3,5.3,0,0,1-5.4-5.2v-.2a5.32,5.32,0,0,1,5.2-5.4h.2a5.3,5.3,0,0,1,5.4,5.2A.67.67,0,0,1,21.63,16.23Z"/><path class="cls-1" d="M24.87,5.61a2,2,0,1,0,2,2A2,2,0,0,0,24.87,5.61Z"/><path class="cls-1" d="M32.25,9.57a11,11,0,0,0-.72-4,7,7,0,0,0-1.8-2.88A7.11,7.11,0,0,0,26.85.93a11.11,11.11,0,0,0-4-.72A52.81,52.81,0,0,0,16.23,0,52.91,52.91,0,0,0,9.57.21a11.19,11.19,0,0,0-4,.72,7.17,7.17,0,0,0-2.88,1.8A7.17,7.17,0,0,0,.93,5.61a8.29,8.29,0,0,0-.72,4A52.91,52.91,0,0,0,0,16.23a52.81,52.81,0,0,0,.18,6.66,11.11,11.11,0,0,0,.72,4,7.11,7.11,0,0,0,1.8,2.88,7,7,0,0,0,2.88,1.8,11,11,0,0,0,4,.72,52.91,52.91,0,0,0,6.66.18,52.81,52.81,0,0,0,6.66-.18,10.89,10.89,0,0,0,4-.72,7.51,7.51,0,0,0,4.68-4.68,10.89,10.89,0,0,0,.72-4c0-1.8.18-2.34.18-6.66A52.91,52.91,0,0,0,32.25,9.57ZM29.37,22.71a8.16,8.16,0,0,1-.54,3.06,6.24,6.24,0,0,1-3.06,3.06,8.16,8.16,0,0,1-3.06.54c-1.62,0-2.16.18-6.48.18a50.1,50.1,0,0,1-6.48-.18,8.23,8.23,0,0,1-3.06-.54,6.32,6.32,0,0,1-3.06-3.06,8.36,8.36,0,0,1-.54-3.06c0-1.62-.18-2.16-.18-6.48a50.1,50.1,0,0,1,.18-6.48,8.44,8.44,0,0,1,.54-3.06,6.79,6.79,0,0,1,1.26-1.8,3.12,3.12,0,0,1,1.8-1.26,8.44,8.44,0,0,1,3.06-.54,50.1,50.1,0,0,1,6.48-.18,50,50,0,0,1,6.48.18,8.36,8.36,0,0,1,3.06.54,6.32,6.32,0,0,1,3.06,3.06,8.23,8.23,0,0,1,.54,3.06c0,1.62.18,2.16.18,6.48A50,50,0,0,1,29.37,22.71Z"/></g></g></svg>