<svg id="Layer_1" data-name="Layer 1" xmlns="http://www.w3.org/2000/svg" viewBox="0 0 1080 1080"><g id="Group_108" data-name="Group 108"><path id="Path_277" data-name="Path 277" d="M420.28,491.8c-2.68-1.16-5.27-1.35-9.6-.46L398.06,494,390.43,457c-1.52-7.36-2.59-9.57-5.58-12.25a13.36,13.36,0,0,0-11-2.59c-7.71,1.59-11.55,8.35-9.74,17.12l9.08,43.93c2.22,10.75,2.93,12.43,6.81,15.28,2.92,2.32,6.57,2.91,11.71,1.85l24.54-5.08c4.44-.91,7-2.29,8.86-4.87a13.18,13.18,0,0,0,2.07-10.06A12.27,12.27,0,0,0,420.28,491.8Z"/><path id="Path_278" data-name="Path 278" d="M442.37,507.62a13.28,13.28,0,0,0,18.72-1.72c.24-.28.46-.58.68-.88,2.05-2.9,2.62-6.09,2-11.07l-6-48.91c-.78-6.4-1.93-9-4.91-11.66a13.19,13.19,0,0,0-10.22-3,12.65,12.65,0,0,0-9.08,5.43c-2.36,3.3-2.67,5.74-1.86,12.37l6,48.91C438.39,502.58,439.56,505.2,442.37,507.62Z"/><path id="Path_279" data-name="Path 279" d="M518.79,507.26a40.42,40.42,0,0,0,18.7-5.21c6.81-3.79,11.56-8.7,12.75-12.92.54-1.92.53-2.16.58-8.73l-.09-6.8c0-5.13-1.21-8.68-3.68-11.46-2.71-3-5.24-3.67-14.43-3.63l-8.59.14c-8.35.12-12.67,3.6-12.48,9.92.18,5.95,4.46,9.41,11.5,9.2l3.81-.11c-3.75,2.38-5.63,3.15-9,3.25a15.69,15.69,0,0,1-16.09-15.16c-.24-8.35,6.58-15.84,14.68-16.08a20.58,20.58,0,0,1,8.42,1.9l5.93,2.92a9.57,9.57,0,0,0,3.48.5,13.38,13.38,0,0,0,13-13.52c-.15-4.77-3-8.74-8.6-12a43.48,43.48,0,0,0-22.49-5.65,41.76,41.76,0,0,0,1.93,83.5l.67,0Z"/><path id="Path_280" data-name="Path 280" d="M563.81,488.5c-.5,5.95-.22,8.25,1.32,11.25A13.11,13.11,0,0,0,583,504.91a13,13,0,0,0,3.94-3.32c2-2.7,2.52-4.34,3.19-10.87l.95-11.18L607,480.88l-1,11.42c-.53,6.3-.24,8.6,1.54,11.62a12.8,12.8,0,0,0,10,6.12,13,13,0,0,0,11.59-5.37c1.89-2.59,2.55-4.69,3-10.16l4.06-48c.43-5.12-.14-8.28-1.94-11.07a13.49,13.49,0,0,0-10-5.87,12.54,12.54,0,0,0-10.54,4.26c-2.51,2.78-3.18,5.12-3.72,11.42L609.06,456l-15.93-1.34,1-11.18c.57-6.78.23-8.49-1.67-11.52a13.87,13.87,0,0,0-10.15-6,13.18,13.18,0,0,0-10.77,4.24c-2.37,2.56-3.17,4.89-3.64,10.48Z"/><path id="Path_281" data-name="Path 281" d="M670.52,461.49l-7.32,39.17c-1,5.28-.94,7.6.32,10.63a13.24,13.24,0,0,0,9.66,7.39A12.52,12.52,0,0,0,685,514.81c2.15-2.39,3.22-4.87,4.09-9.56l7.28-38.94,5.75,1.07c4.69.88,8.15.55,10.49-.95a13.1,13.1,0,0,0,6-8.48,11.91,11.91,0,0,0-8.36-13.69c-1.48-.52-1.48-.52-8.76-1.88l-26-4.87c-10.2-1.9-11.28-2-14.19-1.31a12.21,12.21,0,0,0-8.44,15.06A12,12,0,0,0,654.5,455c1.91,2.78,4.64,4.39,9.1,5.22Z"/><path id="Path_282" data-name="Path 282" d="M403.52,539.63a14.42,14.42,0,0,0-9.69,8L386.93,562l-11.49-10.18A14.27,14.27,0,0,0,362.85,548a12.92,12.92,0,0,0-10.15,15.14,13.62,13.62,0,0,0,4.19,7.29l22.58,22L383,609.77c1,5,2.09,7.13,4.27,9.48a13.42,13.42,0,0,0,12,3.73,13,13,0,0,0,9.49-8.29c1.11-2.91,1.19-5.49.19-10.27l-3.5-16.95,12.73-29.8a14,14,0,0,0,.79-8A13.23,13.23,0,0,0,403.52,539.63Z"/><path id="Path_283" data-name="Path 283" d="M459.77,612.35l20.26-2.3c5.93-.68,8.12-1.53,10.48-4a12.78,12.78,0,0,0,3.19-10,12.28,12.28,0,0,0-5.32-8.77c-3-1.93-5.55-2.36-11.24-1.72l-12,1.37-.67-5.93,9.36-1.07c4.15-.47,6-1.16,7.84-2.93a9.77,9.77,0,0,0,2.58-7.86c-.63-5.57-5.21-8.89-11.61-8.17l-10.31,1.18-.63-5.45,13-1.49c4.86-.56,7.49-1.69,9.63-4a12.44,12.44,0,0,0,3.17-10.09,11.69,11.69,0,0,0-10.3-10.35c-1.83-.27-2.56-.31-10,.54l-15.65,1.78c-7.71.88-8.29,1.07-11.12,2.59a11.79,11.79,0,0,0-5.54,7.23c-.78,2.62-.8,3.46-.05,10.1L439.77,596c.63,5.45.82,6.15,1.37,7.77a12.07,12.07,0,0,0,8.55,8.64C452,613,453.72,613,459.77,612.35Z"/><path id="Path_284" data-name="Path 284" d="M565.59,607.27a13.16,13.16,0,0,0,13.1-13.15,13.71,13.71,0,0,0-1.61-6.3l-25.63-53.18a13.41,13.41,0,0,0-12.38-7.87,13.16,13.16,0,0,0-12,8L502.74,587.9a16.28,16.28,0,0,0-1.59,6.93,12.91,12.91,0,0,0,12.84,13h.3c6.33-.07,10.23-3.33,13.49-11.13l24.34-.26C555.9,604.51,559.51,607.33,565.59,607.27Zm-30-29.63,4-9.59,4.16,9.51Z"/><path id="Path_285" data-name="Path 285" d="M636,533.76a48.59,48.59,0,0,0-12.57-2.55L612.48,530c-6.29-.68-9-.13-12.23,2.16s-4.92,5.47-5.53,11.16l-5.24,48.76c-.54,5,0,8.53,1.88,11.48a13.29,13.29,0,0,0,9.69,5.85,12.86,12.86,0,0,0,14.19-11.35c0-.14,0-.29,0-.44l1.16-10.8,8.87,19.08a12.22,12.22,0,0,0,10.14,7.21,12.81,12.81,0,0,0,14.39-11c0-.13,0-.26,0-.39a16.2,16.2,0,0,0-1.58-8.69l-5.11-10.51c6.78-6.1,9.78-11.67,10.59-19.26A28.51,28.51,0,0,0,636,533.76Zm-7.81,26.88c-.31,2.85-2.48,4.06-6.38,3.52L620,564l-1.06-.12.92-8.54a27.24,27.24,0,0,0,2.71.41c3.94.3,5.9,2.08,5.6,4.92Z"/><path id="Path_286" data-name="Path 286" d="M706.25,543.09c-16.86-3.89-30.87,3.78-34.35,18.89-2.5,10.81,1.39,19.43,11.76,26,1.9,1.3,3.83,2.47,5.77,3.66A21.77,21.77,0,0,1,694,595a3.73,3.73,0,0,1,1.23,3.71,3.22,3.22,0,0,1-3.68,2.69,2,2,0,0,1-.35-.07c-1.86-.43-2.45-1.05-7-6.65a13.91,13.91,0,0,0-8.21-5.8,11.81,11.81,0,0,0-14.26,8.72,1.74,1.74,0,0,0-.05.22c-2.55,11,8.14,22.58,24.65,26.39,9.53,2.19,17.1,1.24,23.54-2.78a27.34,27.34,0,0,0,11.59-16.8c1.68-7.33.27-15-3.59-20a51,51,0,0,0-14.63-12c-5.59-3.37-7-4.79-6.44-7.12a3.15,3.15,0,0,1,3.72-2.32c1.4.32,2.55,1.2,4.71,4,3.55,4.24,6.07,6,9.56,6.85,5.81,1.34,11-2.11,12.44-8.27C729.42,556.26,720.2,546.3,706.25,543.09Z"/><path id="Path_287" data-name="Path 287" d="M534.61,384.94,533,398.49a1.57,1.57,0,0,0,1.37,1.73h.15a1.58,1.58,0,0,0,.82-.22l11.73-7,12.39,5.72a1.55,1.55,0,0,0,2.06-.76,1.61,1.61,0,0,0,.11-1l-3-13.31,9.27-10a1.56,1.56,0,0,0-1-2.61l-13.58-1.26-6.65-11.91a1.55,1.55,0,0,0-2.79.15l-5.4,12.52-13.38,2.65a1.56,1.56,0,0,0-1.23,1.84,1.58,1.58,0,0,0,.5.86Z"/><path id="Path_288" data-name="Path 288" d="M505.63,666.12h.06a4.79,4.79,0,0,0,3.77-1.77,83.61,83.61,0,0,0,11.76-17.45,3.58,3.58,0,0,0,.51-1.89,4.47,4.47,0,0,0-3-4.11,5.67,5.67,0,0,0-2.26-.46,4.19,4.19,0,0,0-3.87,2.57,62.28,62.28,0,0,1-10.68,15.8,4.28,4.28,0,0,0-1.07,2.75,4.46,4.46,0,0,0,1.84,3.54A5,5,0,0,0,505.63,666.12Z"/><path id="Path_289" data-name="Path 289" d="M461.26,640.25a4.78,4.78,0,0,0-2.84.79,4.44,4.44,0,0,0-2.18,3.65,3.76,3.76,0,0,0,.86,2.38,98.72,98.72,0,0,1,10.28,15.55,4.31,4.31,0,0,0,3.84,2.14h.08a5.2,5.2,0,0,0,2.5-.65,4.33,4.33,0,0,0,2.44-3.79,5.28,5.28,0,0,0-.65-2.46,104,104,0,0,0-10.87-16A4.66,4.66,0,0,0,461.26,640.25Z"/><path id="Path_290" data-name="Path 290" d="M526.66,692.82H526a3.84,3.84,0,0,0-4,3.63,2.8,2.8,0,0,0,0,.29,36,36,0,0,1-1.46,8.68,4,4,0,0,1-2.91,2.18,31.18,31.18,0,0,1-6.25.55h-3.57a30.78,30.78,0,0,1-4.18-.19c-1.94-.21-2.28-.57-2.27-2.36l.1-29.58,24.8.09a3.49,3.49,0,0,0,2.81-1.25,4.7,4.7,0,0,0,1-3,4.49,4.49,0,0,0-1-3,3.56,3.56,0,0,0-2.73-1.17l-33-.12.1-28.61a3.4,3.4,0,0,0-1.31-2.72,5.23,5.23,0,0,0-3.3-1,4.91,4.91,0,0,0-3.52,1.19,3.48,3.48,0,0,0-1.05,2.53l-.1,28.61-31.25-.11a3.53,3.53,0,0,0-2.81,1.23,4.49,4.49,0,0,0-1,2.95c0,2.6,1.45,4.28,3.73,4.29l20.78.08c-.28,5.15-1,11.72-4,17.47-4.31,8.19-11.82,12-19.32,15a4.36,4.36,0,0,0-2.79,4.09,5.83,5.83,0,0,0,.53,2.33,4.41,4.41,0,0,0,4.06,2.77h.09a6.07,6.07,0,0,0,2.3-.52c8.85-3.65,17.8-8.48,23.34-19,4-7.47,4.83-15.71,5.11-22.11l9.43,0-.11,31.26c0,5.46,2.43,8.38,7.72,9.16a71.11,71.11,0,0,0,9.34.49,68.68,68.68,0,0,0,11.1-.69,10.81,10.81,0,0,0,7.95-5.78c1.49-3.06,2.45-8.94,2.72-13.11v-.36C531,694.45,529.43,692.94,526.66,692.82Z"/><path id="Path_291" data-name="Path 291" d="M638.14,690.46l-30.56-.11.06-16.26,22.28.08H630a3.81,3.81,0,0,0,3.75-3.86c0-.12,0-.24,0-.36a4.18,4.18,0,0,0-1-2.86A3.54,3.54,0,0,0,630,665.9l-22.28-.09,0-13.16,26.8.09h0a3.43,3.43,0,0,0,2.71-1.29,4.79,4.79,0,0,0,.93-2.92,3.75,3.75,0,0,0-3.33-4.13l-.32,0-52-.19c.66-1.43,1.34-3,2.12-4.89a5.38,5.38,0,0,0,.33-1.77c0-1.79-1.26-3.1-3.53-3.58a11.05,11.05,0,0,0-1.72-.2,3.89,3.89,0,0,0-3.91,2.71,69.6,69.6,0,0,1-17.72,26.76,4.17,4.17,0,0,0-1.43,3.07,4.67,4.67,0,0,0,1.5,3.28,4.89,4.89,0,0,0,3.19,1.25h.06a4.93,4.93,0,0,0,3.55-1.55,84,84,0,0,0,13.2-16.72l20.3.07,0,13.16-18.8-.06a9.65,9.65,0,0,0-7.06,2.17,9.21,9.21,0,0,0-2.38,7l-.06,15.32-12.32,0h0c-2.06,0-3.44,1.7-3.45,4.22a5.16,5.16,0,0,0,.82,2.93,3.15,3.15,0,0,0,2.64,1.4l40.53.15-.08,20.31c0,2.09,2,3.68,4.6,3.69h.07A5.34,5.34,0,0,0,606,722a3.32,3.32,0,0,0,1.47-2.73l.07-20.31,30.56.11h0c2.06,0,3.44-1.74,3.45-4.31a4.82,4.82,0,0,0-.83-2.9A3.2,3.2,0,0,0,638.14,690.46Zm-39.77-.15-19.09-.06.05-14c0-1.63.67-2.26,2.36-2.25l16.74.06Z"/></g></svg>